<svg xmlns="http://www.w3.org/2000/svg" width="531.692" height="531.692" viewBox="0 0 531.692 531.692">
  <path id="Icon_awesome-pinterest" data-name="Icon awesome-pinterest" d="M531.692,266.409c0,146.859-118.988,265.846-265.846,265.846a264.78,264.78,0,0,1-78.682-11.9c10.827-17.687,27.013-46.63,33.016-69.677,3.216-12.435,16.508-63.246,16.508-63.246,8.683,16.508,33.981,30.551,60.887,30.551,80.183,0,137.961-73.751,137.961-165.4,0-87.794-71.714-153.5-163.9-153.5-114.7,0-175.694,76.967-175.694,160.9,0,39.019,20.8,87.579,53.92,103.015,5.038,2.358,7.718,1.286,8.9-3.537.858-3.645,5.36-21.761,7.4-30.122a7.959,7.959,0,0,0-1.822-7.611c-10.827-13.4-19.617-37.84-19.617-60.673,0-58.636,44.379-115.343,120.06-115.343,65.282,0,111.055,44.486,111.055,108.161,0,71.929-36.339,121.775-83.613,121.775-26.049,0-45.666-21.546-39.341-48.024,7.5-31.623,21.975-65.711,21.975-88.544,0-20.367-10.934-37.411-33.66-37.411-26.692,0-48.131,27.549-48.131,64.532,0,23.583,7.933,39.448,7.933,39.448s-26.263,111.269-31.087,132.065c-5.36,22.94-3.216,55.313-.965,76.324C70.106,475.334,0,379.072,0,266.409,0,119.55,118.988.563,265.846.563S531.692,119.55,531.692,266.409Z" transform="translate(0 -0.563)"/>
</svg>
